<svg width="16" height="16" viewBox="0 0 16 16" fill="none" xmlns="http://www.w3.org/2000/svg">
<path fill-rule="evenodd" clip-rule="evenodd" d="M2.04456 15.5681L12.9515 3.021L13.3509 11.8035C13.372 12.2629 13.7618 12.6189 14.2216 12.5977C14.6814 12.5769 15.0372 12.187 15.0164 11.7273L14.5595 1.69727C14.529 1.25293 14.3217 0.839111 13.984 0.548584C13.6463 0.258057 13.2062 0.114746 12.7623 0.150879L2.78607 1.09302C2.3277 1.13623 1.99121 1.54297 2.03436 2.00098C2.07764 2.45947 2.48419 2.79614 2.94257 2.75269L11.7125 1.90576L0.786499 14.4746C0.484497 14.822 0.521301 15.3484 0.868713 15.6504C1.21613 15.9524 1.74255 15.9155 2.04456 15.5681Z" fill="#326DF9"/>
</svg>
