<svg width="223" height="106" viewBox="0 0 223 106" fill="none" xmlns="http://www.w3.org/2000/svg">
<path d="M3.348 77.8015C2.88 77.8015 2.484 77.6395 2.16 77.3155C1.836 76.9915 1.674 76.5955 1.674 76.1275C1.674 75.6595 1.836 75.2635 2.16 74.9395C2.484 74.6155 2.88 74.4535 3.348 74.4535C3.798 74.4535 4.176 74.6155 4.482 74.9395C4.806 75.2635 4.968 75.6595 4.968 76.1275C4.968 76.5955 4.806 76.9915 4.482 77.3155C4.176 77.6395 3.798 77.8015 3.348 77.8015ZM4.536 80.2045V95.0005H2.079V80.2045H4.536ZM15.9325 79.9345C17.7325 79.9345 19.1905 80.4835 20.3065 81.5815C21.4225 82.6615 21.9805 84.2275 21.9805 86.2795V95.0005H19.5505V86.6305C19.5505 85.1545 19.1815 84.0295 18.4435 83.2555C17.7055 82.4635 16.6975 82.0675 15.4195 82.0675C14.1235 82.0675 13.0885 82.4725 12.3145 83.2825C11.5585 84.0925 11.1805 85.2715 11.1805 86.8195V95.0005H8.72353V80.2045H11.1805V82.3105C11.6665 81.5545 12.3235 80.9695 13.1515 80.5555C13.9975 80.1415 14.9245 79.9345 15.9325 79.9345ZM32.015 82.2295H28.91V95.0005H26.453V82.2295H24.536V80.2045H26.453V79.1515C26.453 77.4955 26.876 76.2895 27.722 75.5335C28.586 74.7595 29.963 74.3725 31.853 74.3725V76.4245C30.773 76.4245 30.008 76.6405 29.558 77.0725C29.126 77.4865 28.91 78.1795 28.91 79.1515V80.2045H32.015V82.2295ZM41.3328 95.2435C39.9468 95.2435 38.6868 94.9285 37.5528 94.2985C36.4368 93.6685 35.5548 92.7775 34.9068 91.6255C34.2768 90.4555 33.9618 89.1055 33.9618 87.5755C33.9618 86.0635 34.2858 84.7315 34.9338 83.5795C35.5998 82.4095 36.4998 81.5185 37.6338 80.9065C38.7678 80.2765 40.0368 79.9615 41.4408 79.9615C42.8448 79.9615 44.1138 80.2765 45.2478 80.9065C46.3818 81.5185 47.2728 82.4005 47.9208 83.5525C48.5868 84.7045 48.9198 86.0455 48.9198 87.5755C48.9198 89.1055 48.5778 90.4555 47.8938 91.6255C47.2278 92.7775 46.3188 93.6685 45.1668 94.2985C44.0148 94.9285 42.7368 95.2435 41.3328 95.2435ZM41.3328 93.0835C42.2148 93.0835 43.0428 92.8765 43.8168 92.4625C44.5908 92.0485 45.2118 91.4275 45.6798 90.5995C46.1658 89.7715 46.4088 88.7635 46.4088 87.5755C46.4088 86.3875 46.1748 85.3795 45.7068 84.5515C45.2388 83.7235 44.6268 83.1115 43.8708 82.7155C43.1148 82.3015 42.2958 82.0945 41.4138 82.0945C40.5138 82.0945 39.6858 82.3015 38.9298 82.7155C38.1918 83.1115 37.5978 83.7235 37.1478 84.5515C36.6978 85.3795 36.4728 86.3875 36.4728 87.5755C36.4728 88.7815 36.6888 89.7985 37.1208 90.6265C37.5708 91.4545 38.1648 92.0755 38.9028 92.4895C39.6408 92.8855 40.4508 93.0835 41.3328 93.0835ZM65.6503 77.6935C67.6483 77.6935 69.3853 78.0715 70.8613 78.8275C72.3373 79.5835 73.4713 80.6455 74.2633 82.0135C75.0553 83.3635 75.4513 84.9295 75.4513 86.7115C75.4513 88.1335 75.2173 89.5015 74.7493 90.8155C74.2813 92.1115 73.5973 93.1645 72.6973 93.9745C71.8153 94.7845 70.7803 95.1895 69.5923 95.1895C68.6923 95.1895 67.9993 94.9645 67.5133 94.5145C67.0273 94.0645 66.7483 93.4525 66.6763 92.6785C66.1183 93.4525 65.4073 94.0645 64.5433 94.5145C63.6973 94.9645 62.7973 95.1895 61.8433 95.1895C60.4753 95.1895 59.3953 94.7755 58.6033 93.9475C57.8293 93.1015 57.4423 91.9675 57.4423 90.5455C57.4423 89.1955 57.7213 87.9355 58.2793 86.7655C58.8553 85.5955 59.6473 84.6595 60.6553 83.9575C61.6633 83.2375 62.8063 82.8775 64.0843 82.8775C65.7943 82.8775 66.9463 83.5255 67.5403 84.8215L67.8373 83.1475H69.9703L68.6203 90.9505C68.5663 91.2925 68.5393 91.6075 68.5393 91.8955C68.5393 92.9755 69.0163 93.5155 69.9703 93.5155C70.6903 93.5155 71.3113 93.1735 71.8333 92.4895C72.3733 91.8055 72.7783 90.9505 73.0483 89.9245C73.3183 88.8805 73.4533 87.8545 73.4533 86.8465C73.4533 84.4885 72.7423 82.6615 71.3203 81.3655C69.9163 80.0695 67.9273 79.4215 65.3533 79.4215C63.2113 79.4215 61.2763 79.9435 59.5483 80.9875C57.8383 82.0135 56.4973 83.4265 55.5253 85.2265C54.5533 87.0265 54.0673 89.0155 54.0673 91.1935C54.0493 93.5695 54.7603 95.3965 56.2003 96.6745C57.6403 97.9705 59.6383 98.6185 62.1943 98.6185C63.8863 98.6185 65.3803 98.3125 66.6763 97.7005L67.0003 99.3745C65.3983 100.04 63.6343 100.373 61.7083 100.373C59.7823 100.373 58.0813 100.004 56.6053 99.2665C55.1473 98.5465 54.0133 97.5025 53.2033 96.1345C52.4113 94.7845 52.0153 93.2095 52.0153 91.4095C52.0153 88.8715 52.6003 86.5585 53.7703 84.4705C54.9403 82.3645 56.5603 80.7085 58.6303 79.5025C60.7183 78.2965 63.0583 77.6935 65.6503 77.6935ZM62.5723 93.2725C63.3823 93.2725 64.1293 93.0385 64.8133 92.5705C65.4973 92.0845 66.0373 91.4365 66.4333 90.6265C66.8293 89.7985 67.0273 88.8985 67.0273 87.9265C67.0273 86.9905 66.7663 86.2345 66.2443 85.6585C65.7403 85.0645 65.0203 84.7675 64.0843 84.7675C63.2203 84.7675 62.4553 85.0285 61.7893 85.5505C61.1413 86.0545 60.6373 86.7295 60.2773 87.5755C59.9173 88.4035 59.7373 89.2675 59.7373 90.1675C59.7373 91.1215 59.9803 91.8775 60.4663 92.4355C60.9523 92.9935 61.6543 93.2725 62.5723 93.2725ZM97.2861 79.9345C98.4381 79.9345 99.4641 80.1775 100.364 80.6635C101.264 81.1315 101.975 81.8425 102.497 82.7965C103.019 83.7505 103.28 84.9115 103.28 86.2795V95.0005H100.85V86.6305C100.85 85.1545 100.481 84.0295 99.7431 83.2555C99.0231 82.4635 98.0421 82.0675 96.8001 82.0675C95.5221 82.0675 94.5051 82.4815 93.7491 83.3095C92.9931 84.1195 92.6151 85.2985 92.6151 86.8465V95.0005H90.1851V86.6305C90.1851 85.1545 89.8161 84.0295 89.0781 83.2555C88.3581 82.4635 87.3771 82.0675 86.1351 82.0675C84.8571 82.0675 83.8401 82.4815 83.0841 83.3095C82.3281 84.1195 81.9501 85.2985 81.9501 86.8465V95.0005H79.4931V80.2045H81.9501V82.3375C82.4361 81.5635 83.0841 80.9695 83.8941 80.5555C84.7221 80.1415 85.6311 79.9345 86.6211 79.9345C87.8631 79.9345 88.9611 80.2135 89.9151 80.7715C90.8691 81.3295 91.5801 82.1485 92.0481 83.2285C92.4621 82.1845 93.1461 81.3745 94.1001 80.7985C95.0541 80.2225 96.1161 79.9345 97.2861 79.9345ZM106.392 87.5485C106.392 86.0365 106.698 84.7135 107.31 83.5795C107.922 82.4275 108.759 81.5365 109.821 80.9065C110.901 80.2765 112.098 79.9615 113.412 79.9615C114.708 79.9615 115.833 80.2405 116.787 80.7985C117.741 81.3565 118.452 82.0585 118.92 82.9045V80.2045H121.404V95.0005H118.92V92.2465C118.434 93.1105 117.705 93.8305 116.733 94.4065C115.779 94.9645 114.663 95.2435 113.385 95.2435C112.071 95.2435 110.883 94.9195 109.821 94.2715C108.759 93.6235 107.922 92.7145 107.31 91.5445C106.698 90.3745 106.392 89.0425 106.392 87.5485ZM118.92 87.5755C118.92 86.4595 118.695 85.4875 118.245 84.6595C117.795 83.8315 117.183 83.2015 116.409 82.7695C115.653 82.3195 114.816 82.0945 113.898 82.0945C112.98 82.0945 112.143 82.3105 111.387 82.7425C110.631 83.1745 110.028 83.8045 109.578 84.6325C109.128 85.4605 108.903 86.4325 108.903 87.5485C108.903 88.6825 109.128 89.6725 109.578 90.5185C110.028 91.3465 110.631 91.9855 111.387 92.4355C112.143 92.8675 112.98 93.0835 113.898 93.0835C114.816 93.0835 115.653 92.8675 116.409 92.4355C117.183 91.9855 117.795 91.3465 118.245 90.5185C118.695 89.6725 118.92 88.6915 118.92 87.5755ZM128.014 82.6075C128.446 81.7615 129.058 81.1045 129.85 80.6365C130.66 80.1685 131.641 79.9345 132.793 79.9345V82.4725H132.145C129.391 82.4725 128.014 83.9665 128.014 86.9545V95.0005H125.557V80.2045H128.014V82.6075ZM136.898 77.8015C136.43 77.8015 136.034 77.6395 135.71 77.3155C135.386 76.9915 135.224 76.5955 135.224 76.1275C135.224 75.6595 135.386 75.2635 135.71 74.9395C136.034 74.6155 136.43 74.4535 136.898 74.4535C137.348 74.4535 137.726 74.6155 138.032 74.9395C138.356 75.2635 138.518 75.6595 138.518 76.1275C138.518 76.5955 138.356 76.9915 138.032 77.3155C137.726 77.6395 137.348 77.8015 136.898 77.8015ZM138.086 80.2045V95.0005H135.629V80.2045H138.086ZM141.355 87.5755C141.355 86.0455 141.661 84.7135 142.273 83.5795C142.885 82.4275 143.731 81.5365 144.811 80.9065C145.909 80.2765 147.16 79.9615 148.564 79.9615C150.382 79.9615 151.876 80.4025 153.046 81.2845C154.234 82.1665 155.017 83.3905 155.395 84.9565H152.749C152.497 84.0565 152.002 83.3455 151.264 82.8235C150.544 82.3015 149.644 82.0405 148.564 82.0405C147.16 82.0405 146.026 82.5265 145.162 83.4985C144.298 84.4525 143.866 85.8115 143.866 87.5755C143.866 89.3575 144.298 90.7345 145.162 91.7065C146.026 92.6785 147.16 93.1645 148.564 93.1645C149.644 93.1645 150.544 92.9125 151.264 92.4085C151.984 91.9045 152.479 91.1845 152.749 90.2485H155.395C154.999 91.7605 154.207 92.9755 153.019 93.8935C151.831 94.7935 150.346 95.2435 148.564 95.2435C147.16 95.2435 145.909 94.9285 144.811 94.2985C143.731 93.6685 142.885 92.7775 142.273 91.6255C141.661 90.4735 141.355 89.1235 141.355 87.5755ZM165.127 95.2435C163.741 95.2435 162.481 94.9285 161.347 94.2985C160.231 93.6685 159.349 92.7775 158.701 91.6255C158.071 90.4555 157.756 89.1055 157.756 87.5755C157.756 86.0635 158.08 84.7315 158.728 83.5795C159.394 82.4095 160.294 81.5185 161.428 80.9065C162.562 80.2765 163.831 79.9615 165.235 79.9615C166.639 79.9615 167.908 80.2765 169.042 80.9065C170.176 81.5185 171.067 82.4005 171.715 83.5525C172.381 84.7045 172.714 86.0455 172.714 87.5755C172.714 89.1055 172.372 90.4555 171.688 91.6255C171.022 92.7775 170.113 93.6685 168.961 94.2985C167.809 94.9285 166.531 95.2435 165.127 95.2435ZM165.127 93.0835C166.009 93.0835 166.837 92.8765 167.611 92.4625C168.385 92.0485 169.006 91.4275 169.474 90.5995C169.96 89.7715 170.203 88.7635 170.203 87.5755C170.203 86.3875 169.969 85.3795 169.501 84.5515C169.033 83.7235 168.421 83.1115 167.665 82.7155C166.909 82.3015 166.09 82.0945 165.208 82.0945C164.308 82.0945 163.48 82.3015 162.724 82.7155C161.986 83.1115 161.392 83.7235 160.942 84.5515C160.492 85.3795 160.267 86.3875 160.267 87.5755C160.267 88.7815 160.483 89.7985 160.915 90.6265C161.365 91.4545 161.959 92.0755 162.697 92.4895C163.435 92.8855 164.245 93.0835 165.127 93.0835ZM176.727 95.1625C176.259 95.1625 175.863 95.0005 175.539 94.6765C175.215 94.3525 175.053 93.9565 175.053 93.4885C175.053 93.0205 175.215 92.6245 175.539 92.3005C175.863 91.9765 176.259 91.8145 176.727 91.8145C177.177 91.8145 177.555 91.9765 177.861 92.3005C178.185 92.6245 178.347 93.0205 178.347 93.4885C178.347 93.9565 178.185 94.3525 177.861 94.6765C177.555 95.0005 177.177 95.1625 176.727 95.1625ZM180.695 87.5755C180.695 86.0455 181.001 84.7135 181.613 83.5795C182.225 82.4275 183.071 81.5365 184.151 80.9065C185.249 80.2765 186.5 79.9615 187.904 79.9615C189.722 79.9615 191.216 80.4025 192.386 81.2845C193.574 82.1665 194.357 83.3905 194.735 84.9565H192.089C191.837 84.0565 191.342 83.3455 190.604 82.8235C189.884 82.3015 188.984 82.0405 187.904 82.0405C186.5 82.0405 185.366 82.5265 184.502 83.4985C183.638 84.4525 183.206 85.8115 183.206 87.5755C183.206 89.3575 183.638 90.7345 184.502 91.7065C185.366 92.6785 186.5 93.1645 187.904 93.1645C188.984 93.1645 189.884 92.9125 190.604 92.4085C191.324 91.9045 191.819 91.1845 192.089 90.2485H194.735C194.339 91.7605 193.547 92.9755 192.359 93.8935C191.171 94.7935 189.686 95.2435 187.904 95.2435C186.5 95.2435 185.249 94.9285 184.151 94.2985C183.071 93.6685 182.225 92.7775 181.613 91.6255C181.001 90.4735 180.695 89.1235 180.695 87.5755ZM204.467 95.2435C203.081 95.2435 201.821 94.9285 200.687 94.2985C199.571 93.6685 198.689 92.7775 198.041 91.6255C197.411 90.4555 197.096 89.1055 197.096 87.5755C197.096 86.0635 197.42 84.7315 198.068 83.5795C198.734 82.4095 199.634 81.5185 200.768 80.9065C201.902 80.2765 203.171 79.9615 204.575 79.9615C205.979 79.9615 207.248 80.2765 208.382 80.9065C209.516 81.5185 210.407 82.4005 211.055 83.5525C211.721 84.7045 212.054 86.0455 212.054 87.5755C212.054 89.1055 211.712 90.4555 211.028 91.6255C210.362 92.7775 209.453 93.6685 208.301 94.2985C207.149 94.9285 205.871 95.2435 204.467 95.2435ZM204.467 93.0835C205.349 93.0835 206.177 92.8765 206.951 92.4625C207.725 92.0485 208.346 91.4275 208.814 90.5995C209.3 89.7715 209.543 88.7635 209.543 87.5755C209.543 86.3875 209.309 85.3795 208.841 84.5515C208.373 83.7235 207.761 83.1115 207.005 82.7155C206.249 82.3015 205.43 82.0945 204.548 82.0945C203.648 82.0945 202.82 82.3015 202.064 82.7155C201.326 83.1115 200.732 83.7235 200.282 84.5515C199.832 85.3795 199.607 86.3875 199.607 87.5755C199.607 88.7815 199.823 89.7985 200.255 90.6265C200.705 91.4545 201.299 92.0755 202.037 92.4895C202.775 92.8855 203.585 93.0835 204.467 93.0835Z" fill="#707070"/>
<path d="M107.918 17.3905V47.0005H99.686V30.6625L94.1 47.0005H87.212L81.584 30.5365V47.0005H73.352V17.3905H83.306L90.74 36.6265L98.006 17.3905H107.918ZM111.26 35.1985C111.26 32.7625 111.694 30.6345 112.562 28.8145C113.458 26.9945 114.662 25.5945 116.174 24.6145C117.714 23.6345 119.422 23.1445 121.298 23.1445C122.922 23.1445 124.322 23.4665 125.498 24.1105C126.674 24.7545 127.584 25.6225 128.228 26.7145V23.4385H136.46V47.0005H128.228V43.7245C127.584 44.8165 126.66 45.6845 125.456 46.3285C124.28 46.9725 122.894 47.2945 121.298 47.2945C119.422 47.2945 117.714 46.8045 116.174 45.8245C114.662 44.8445 113.458 43.4445 112.562 41.6245C111.694 39.7765 111.26 37.6345 111.26 35.1985ZM128.228 35.1985C128.228 33.6865 127.808 32.4965 126.968 31.6285C126.156 30.7605 125.148 30.3265 123.944 30.3265C122.712 30.3265 121.69 30.7605 120.878 31.6285C120.066 32.4685 119.66 33.6585 119.66 35.1985C119.66 36.7105 120.066 37.9145 120.878 38.8105C121.69 39.6785 122.712 40.1125 123.944 40.1125C125.148 40.1125 126.156 39.6785 126.968 38.8105C127.808 37.9425 128.228 36.7385 128.228 35.1985ZM149.383 27.5965C150.307 26.2525 151.427 25.1885 152.743 24.4045C154.059 23.6205 155.473 23.2285 156.985 23.2285V32.0065H154.675C152.883 32.0065 151.553 32.3565 150.685 33.0565C149.817 33.7565 149.383 34.9745 149.383 36.7105V47.0005H141.151V23.4385H149.383V27.5965ZM164.094 21.2545C162.638 21.2545 161.462 20.8625 160.566 20.0785C159.698 19.2665 159.264 18.2585 159.264 17.0545C159.264 15.8225 159.698 14.8005 160.566 13.9885C161.462 13.1765 162.638 12.7705 164.094 12.7705C165.522 12.7705 166.67 13.1765 167.538 13.9885C168.434 14.8005 168.882 15.8225 168.882 17.0545C168.882 18.2585 168.434 19.2665 167.538 20.0785C166.67 20.8625 165.522 21.2545 164.094 21.2545ZM168.168 23.4385V47.0005H159.936V23.4385H168.168ZM171.512 35.1985C171.512 32.7625 172.016 30.6345 173.024 28.8145C174.032 26.9945 175.432 25.5945 177.224 24.6145C179.044 23.6345 181.116 23.1445 183.44 23.1445C186.436 23.1445 188.956 23.9705 191 25.6225C193.044 27.2465 194.36 29.5285 194.948 32.4685H186.212C185.708 30.9285 184.728 30.1585 183.272 30.1585C182.236 30.1585 181.41 30.5925 180.794 31.4605C180.206 32.3005 179.912 33.5465 179.912 35.1985C179.912 36.8505 180.206 38.1105 180.794 38.9785C181.41 39.8465 182.236 40.2805 183.272 40.2805C184.756 40.2805 185.736 39.5105 186.212 37.9705H194.948C194.36 40.8825 193.044 43.1645 191 44.8165C188.956 46.4685 186.436 47.2945 183.44 47.2945C181.116 47.2945 179.044 46.8045 177.224 45.8245C175.432 44.8445 174.032 43.4445 173.024 41.6245C172.016 39.8045 171.512 37.6625 171.512 35.1985ZM209.33 47.2945C206.978 47.2945 204.864 46.8045 202.988 45.8245C201.14 44.8445 199.684 43.4445 198.62 41.6245C197.556 39.8045 197.024 37.6625 197.024 35.1985C197.024 32.7625 197.556 30.6345 198.62 28.8145C199.712 26.9945 201.182 25.5945 203.03 24.6145C204.906 23.6345 207.02 23.1445 209.372 23.1445C211.724 23.1445 213.824 23.6345 215.672 24.6145C217.548 25.5945 219.018 26.9945 220.082 28.8145C221.174 30.6345 221.72 32.7625 221.72 35.1985C221.72 37.6345 221.174 39.7765 220.082 41.6245C219.018 43.4445 217.548 44.8445 215.672 45.8245C213.796 46.8045 211.682 47.2945 209.33 47.2945ZM209.33 40.1545C210.478 40.1545 211.43 39.7345 212.186 38.8945C212.97 38.0265 213.362 36.7945 213.362 35.1985C213.362 33.6025 212.97 32.3845 212.186 31.5445C211.43 30.7045 210.492 30.2845 209.372 30.2845C208.252 30.2845 207.314 30.7045 206.558 31.5445C205.802 32.3845 205.424 33.6025 205.424 35.1985C205.424 36.8225 205.788 38.0545 206.516 38.8945C207.244 39.7345 208.182 40.1545 209.33 40.1545Z" fill="white"/>
<path fill-rule="evenodd" clip-rule="evenodd" d="M0 39.4995V52.5371H11.292V50.6924L0 39.4995Z" fill="#326CF9"/>
<path fill-rule="evenodd" clip-rule="evenodd" d="M35.884 52.5396H47.176V39.5015L35.887 50.6953L35.884 52.5396Z" fill="#326CF9"/>
<path fill-rule="evenodd" clip-rule="evenodd" d="M47.176 0.274414L23.638 28.0273L0 0.15625V24.1392L23.638 52.0122L47.172 24.2622L47.176 0.274414Z" fill="#326CF9"/>
</svg>
